<?xml version="1.0" encoding="utf-8"?>
<!-- Generator: Adobe Illustrator 22.1.0, SVG Export Plug-In . SVG Version: 6.00 Build 0)  -->
<svg version="1.1" id="Layer_1" xmlns="http://www.w3.org/2000/svg" xmlns:xlink="http://www.w3.org/1999/xlink" x="0px" y="0px"
	 viewBox="0 0 512 512" style="enable-background:new 0 0 512 512;" xml:space="preserve">
<g>
	<path d="M512,349.1v-23.2h-23.3H23.3H0v46.5h23.3h465.5H512V349.1C512,349.1,512,349.1,512,349.1C512,349.1,512,349.1,512,349.1z"
		/>
	<path d="M488.7,186.2H512v-23.2c0,0,0,0,0,0c0,0,0,0,0,0v-23.2h-23.3H12.1H0v46.5h23.3H488.7z"/>
	<polygon points="488.7,279.3 512,279.3 512,232.7 488.7,232.7 23.3,232.7 0,232.7 0,279.3 23.3,279.3 	"/>
</g>
</svg>
